#!OML:ASF F:\VICON\USERDATA\INSTALL\rory3\rory3.ASF
:FULLY-SPECIFIED
:DEGREES
289
root 0.798359 16.8556 -18.9147 3.60608 -9.7483 2.66655
lowerback 21.1395 0.868258 3.07175
upperback 1.66434 2.32428 4.51119
thorax -10.1124 1.06621 2.54161
lowerneck -21.8119 -2.67964 -7.79181
upperneck 7.40329 -1.95123 4.2227
head 5.84224 -0.842079 2.38873
rclavicle -1.59028e-014 -1.74931e-014
rhumerus -17.3979 -1.52909 -76.0737
rradius 44.1512
rwrist 3.07101
rhand -20.435 12.5187
rfingers 7.12502
rthumb 5.91987 -17.3786
lclavicle -1.59028e-014 -1.74931e-014
lhumerus -31.3693 7.46574 83.9466
lradius 40.0462
lwrist 1.18674
lhand -24.5535 16.6864
lfingers 7.12502
lthumb 1.94277 46.6573
rfemur -32.0111 8.0554 15.4888
rtibia 48.4956
rfoot -20.3221 -7.84786
rtoes -8.36448
lfemur -30.056 5.74842 -21.5307
ltibia 46.4818
lfoot -22.4399 6.67329
ltoes -7.62149
290
root 0.776358 16.9318 -18.9058 3.64263 -9.24677 2.54353
lowerback 20.5345 0.843431 3.06872
upperback 1.49276 2.26103 4.44362
thorax -9.96598 1.03788 2.49086
lowerneck -21.2199 -2.73157 -7.93114
upperneck 7.65681 -2.06335 4.44266
head 5.84416 -0.891283 2.47233
rclavicle -9.54166e-015 -2.70347e-014
rhumerus -17.7133 -1.35779 -76.0556
rradius 44.1118
rwrist 2.54204
rhand -20.0298 13.6377
rfingers 7.12502
rthumb 6.31108 -16.2483
lclavicle -9.54166e-015 -2.70347e-014
lhumerus -31.8 6.88292 83.8427
lradius 40.1668
lwrist 0.181024
lhand -23.9714 18.1157
lfingers 7.12502
lthumb 2.50495 48.0807
rfemur -30.9441 8.1754 15.6858
rtibia 46.8959
rfoot -20.4333 -8.36883
rtoes -9.00474
lfemur -28.9334 5.47082 -21.2961
ltibia 44.8869
lfoot -22.8928 6.52822
ltoes -7.7139
291
root 0.753745 17.0206 -18.9027 3.64156 -8.68098 2.35994
lowerback 20.0186 0.80707 3.07685
upperback 1.31785 2.19682 4.43632
thorax -9.87353 1.00947 2.5002
lowerneck -20.5714 -2.84516 -8.05059
upperneck 7.66175 -2.25068 4.54827
head 5.75984 -0.984428 2.50684
rclavicle -3.97569e-016 -1.90833e-014
rhumerus -18.1238 -0.968258 -75.9834
rradius 44.4346
rwrist 1.37181
rhand -19.4087 13.7282
rfingers 7.12502
rthumb 6.91067 -16.139
lclavicle -3.97569e-016 -1.90833e-014
lhumerus -32.3018 6.30961 83.7869
lradius 40.517
lwrist -0.705889
lhand -21.7163 21.6034
lfingers 7.12502
lthumb 4.68274 51.5317
rfemur -29.7951 8.28404 15.967
rtibia 45.2866
rfoot -20.6661 -9.02119
rtoes -7.66468
lfemur -27.8718 5.25333 -21.0276
ltibia 43.2825
lfoot -23.0987 6.32829
ltoes -8.58551
292
root 0.733884 17.1113 -18.8996 3.59974 -8.13887 2.0995
lowerback 19.5828 0.751875 3.22535
upperback 1.23942 2.13239 4.39108
thorax -9.71001 0.973553 2.3857
lowerneck -20.2473 -2.9878 -8.04273
upperneck 7.69935 -2.48149 4.62684
head 5.73731 -1.09389 2.50709
rclavicle -1.07344e-014 5.24792e-014
rhumerus -18.2982 -0.553537 -76.0261
rradius 45.0273
rwrist -0.320338
rhand -18.652 12.2894
rfingers 7.12502
rthumb 7.64108 -17.5525
lclavicle -1.07344e-014 5.24792e-014
lhumerus -32.5778 5.61541 83.6941
lradius 41.1624
lwrist -1.48064
lhand -19.3592 25.0813
lfingers 7.12502
lthumb 6.95845 54.9469
rfemur -28.5897 8.4123 16.3227
rtibia 43.6545
rfoot -20.8063 -9.60382
rtoes -5.58945
lfemur -26.9208 5.10009 -20.6952
ltibia 41.656
lfoot -23.2591 5.97872
ltoes -8.91597
293
root 0.715778 17.1943 -18.8871 3.62292 -7.56921 2.04634
lowerback 18.9638 0.720528 3.13613
upperback 1.17055 2.03077 4.29644
thorax -9.43902 0.930414 2.36237
lowerneck -20.0951 -3.12913 -7.98782
upperneck 7.9885 -2.71472 4.71317
head 5.82202 -1.20281 2.50209
rclavicle 1.55052e-014 3.18055e-014
rhumerus -18.3206 -0.381334 -76.0188
rradius 45.2933
rwrist -1.64632
rhand -17.8632 11.4073
rfingers 7.12502
rthumb 8.4024 -18.4056
lclavicle 1.55052e-014 3.18055e-014
lhumerus -32.6811 4.89666 83.6474
lradius 40.7616
lwrist -0.223068
lhand -21.8007 18.7136
lfingers 7.12502
lthumb 4.60123 48.6437
rfemur -27.4809 8.30449 16.4388
rtibia 42.0474
rfoot -20.9005 -10.0146
rtoes -4.84589
lfemur -26.1406 4.7705 -20.5799
ltibia 40.0065
lfoot -23.3947 5.66491
ltoes -7.77053
294
root 0.697866 17.2599 -18.8735 3.70151 -6.91202 1.99051
lowerback 18.2933 0.673081 3.00552
upperback 1.02879 1.90726 4.24976
thorax -9.22182 0.879249 2.42115
lowerneck -19.9118 -3.2745 -7.93786
upperneck 8.31144 -2.94233 4.69806
head 5.91059 -1.31782 2.4656
rclavicle -1.23246e-014 -7.31528e-014
rhumerus -18.6233 -0.204301 -75.9083
rradius 45.5057
rwrist -2.76733
rhand -17.2245 11.3011
rfingers 7.12502
rthumb 9.01876 -18.4861
lclavicle -1.23246e-014 -7.31528e-014
lhumerus -32.8481 3.90949 83.8358
lradius 41.1403
lwrist 0.584384
lhand -24.1415 19.5025
lfingers 7.12502
lthumb 2.34075 49.4694
rfemur -26.4949 8.05217 16.5719
rtibia 40.5315
rfoot -21.0334 -10.4393
rtoes -4.4775
lfemur -25.3181 4.39596 -20.443
ltibia 38.4362
lfoot -23.6135 5.32978
ltoes -7.39905
295
root 0.678627 17.3166 -18.8646 3.78208 -6.24556 1.88463
lowerback 17.7086 0.615884 2.90545
upperback 0.808246 1.79077 4.22978
thorax -9.13772 0.82954 2.48951
lowerneck -19.5325 -3.32123 -8.09377
upperneck 8.67326 -3.02307 4.83853
head 5.97707 -1.35866 2.53006
rclavicle 1.74931e-014 -4.77083e-015
rhumerus -19.1601 0.149749 -75.8019
rradius 45.7234
rwrist -3.31667
rhand -17.4888 11.1915
rfingers 7.12502
rthumb 8.76364 -18.6066
lclavicle 1.74931e-014 -4.77083e-015
lhumerus -33.32 3.52288 83.73
lradius 41.3691
lwrist 0.915721
lhand -24.0733 18.2998
lfingers 7.12502
lthumb 2.40655 48.2659
rfemur -25.6141 7.81194 16.78
rtibia 39.145
rfoot -21.1789 -11.0016
rtoes -4.25885
lfemur -24.4958 3.94285 -20.2334
ltibia 36.949
lfoot -23.7361 5.21953
ltoes -8.59943
296
root 0.657546 17.372 -18.8565 3.8921 -5.58175 1.70191
lowerback 17.0416 0.544437 2.86259
upperback 0.591498 1.66154 4.2021
thorax -8.99905 0.771134 2.51871
lowerneck -18.8795 -3.28941 -8.18837
upperneck 8.75988 -3.03388 4.98802
head 5.90599 -1.36411 2.59666
rclavicle -1.23246e-014 -3.49861e-014
rhumerus -19.5889 0.591425 -75.733
rradius 45.8052
rwrist -3.80129
rhand -17.7301 11.3692
rfingers 7.12502
rthumb 8.5308 -18.4385
lclavicle -1.23246e-014 -3.49861e-014
lhumerus -33.9565 3.1423 83.6414
lradius 41.9679
lwrist 1.5515
lhand -23.4855 19.4008
lfingers 7.12502
lthumb 2.97422 49.3598
rfemur -24.7971 7.58759 17.0757
rtibia 37.8715
rfoot -21.3596 -11.4228
rtoes -3.98879
lfemur -23.8113 3.56322 -19.942
ltibia 35.5891
lfoot -23.8506 5.09833
ltoes -9.32596
297
root 0.633315 17.4249 -18.8489 3.93687 -4.9623 1.58541
lowerback 16.3962 0.506323 2.72383
upperback 0.555418 1.5464 4.1436
thorax -8.67447 0.722964 2.56128
lowerneck -18.7294 -3.42009 -8.18256
upperneck 8.78032 -3.23708 5.08418
head 5.90398 -1.45679 2.60581
rclavicle -1.78906e-014 -2.54444e-014
rhumerus -19.6478 0.768983 -75.6544
rradius 45.8664
rwrist -4.13276
rhand -17.5171 11.6734
rfingers 7.12502
rthumb 8.73632 -18.1258
lclavicle -1.78906e-014 -2.54444e-014
lhumerus -34.1462 2.73726 83.5473
lradius 42.3732
lwrist 2.30587
lhand -23.1071 19.9501
lfingers 7.12502
lthumb 3.33964 49.9036
rfemur -23.9359 7.41554 17.3017
rtibia 36.6447
rfoot -21.4948 -11.6643
rtoes -3.31491
lfemur -23.0964 3.32959 -19.7173
ltibia 34.3502
lfoot -24.0623 4.92292
ltoes -10.402
298
root 0.610862 17.4705 -18.8438 3.89753 -4.47437 1.51468
lowerback 16.0279 0.562549 2.50657
upperback 0.523677 1.5565 4.06338
thorax -8.50523 0.736298 2.59526
lowerneck -18.9262 -3.69002 -8.16877
upperneck 9.10641 -3.61489 5.22678
head 6.06824 -1.62745 2.60738
rclavicle 2.06736e-014 -9.54166e-015
rhumerus -19.8535 0.536623 -75.5331
rradius 45.9775
rwrist -3.82797
rhand -17.4585 12.2591
rfingers 7.12502
rthumb 8.79296 -17.5377
lclavicle 2.06736e-014 -9.54166e-015
lhumerus -34.1553 2.27155 83.5223
lradius 42.6473
lwrist 3.07152
lhand -22.4987 20.7665
lfingers 7.12502
lthumb 3.9272 50.71
rfemur -23.0792 7.38946 17.4579
rtibia 35.4397
rfoot -21.6486 -11.8145
rtoes -2.44418
lfemur -22.3457 3.1618 -19.5652
ltibia 33.22
lfoot -24.2218 5.0412
ltoes -10.9515
299
root 0.592605 17.5152 -18.8337 3.82186 -4.0264 1.4995
lowerback 15.6757 0.65475 2.27343
upperback 0.383964 1.61809 3.96097
thorax -8.46382 0.774237 2.60435
lowerneck -18.7372 -3.9406 -8.12018
upperneck 9.39221 -3.99103 5.24774
head 6.15492 -1.81044 2.56611
rclavicle -3.97569e-015 -2.8625e-014
rhumerus -20.4679 0.566457 -75.3863
rradius 46.4045
rwrist -3.56272
rhand -17.7281 11.9932
rfingers 7.12502
rthumb 8.53271 -17.8144
lclavicle -3.97569e-015 -2.8625e-014
lhumerus -34.3756 1.58223 83.5874
lradius 42.9345
lwrist 3.8567
lhand -22.0469 21.873
lfingers 7.12502
lthumb 4.36345 51.808
rfemur -22.1795 7.28477 17.547
rtibia 34.2335
rfoot -21.7849 -11.814
rtoes -2.04822
lfemur -21.5776 2.91764 -19.4978
ltibia 32.1893
lfoot -24.4079 5.42975
ltoes -10.4017
